<svg width="465" height="467" viewBox="0 0 465 467" fill="none" xmlns="http://www.w3.org/2000/svg">
<path d="M229.215 59.7077C231.508 81.8769 232.233 172.203 232.233 172.203C232.233 172.203 232.997 81.8769 235.25 59.7077C237.423 38.7457 243.337 36.2914 243.337 36.2914C232.836 32.6703 232.233 0 232.233 0C232.233 0 231.629 32.6703 221.128 36.2914C221.128 36.2914 227.042 38.7859 229.215 59.7077Z" fill="black" fill-opacity="0.8"/>
<path d="M180.37 42.8889C180.37 42.8889 186.687 44.0959 193.165 64.1326C200.005 85.3361 219.519 173.57 219.519 173.57C219.519 173.57 201.453 85.0545 199.079 62.8854C196.826 41.9233 202.097 38.2619 202.097 38.2619C191.073 36.894 183.67 5.0686 183.67 5.0686C183.67 5.0686 189.866 37.1354 180.33 42.8889H180.37Z" fill="black" fill-opacity="0.8"/>
<path d="M137.239 20.1574C137.239 20.1574 149.994 50.2527 141.866 57.8167C141.866 57.8167 148.304 57.6558 158.765 75.9222C169.869 95.2749 207.287 177.474 207.287 177.474C207.287 177.474 171.237 94.6714 164.277 73.4679C157.718 53.4312 162.144 48.764 162.144 48.764C151.08 49.7296 137.239 20.1172 137.239 20.1172V20.1574Z" fill="black" fill-opacity="0.8"/>
<path d="M94.9932 44.58C94.9932 44.58 113.702 71.376 107.345 80.469C107.345 80.469 113.581 78.9803 127.663 94.6717C142.55 111.288 196.263 183.912 196.263 183.912C196.263 183.912 143.757 110.403 132.572 91.0909C121.991 72.8647 125.33 67.3928 125.33 67.3928C114.708 70.6518 94.9932 44.58 94.9932 44.58Z" fill="black" fill-opacity="0.8"/>
<path d="M58.7018 77.2507C58.7018 77.2507 82.6012 99.5405 78.2559 109.8C78.2559 109.8 84.0495 107.064 101.069 119.457C119.094 132.613 186.687 192.482 186.687 192.482C186.687 192.482 120.059 131.487 105.092 114.95C90.9698 99.3394 93.1021 93.264 93.1021 93.264C83.3654 98.6554 58.7018 77.2507 58.7018 77.2507Z" fill="black" fill-opacity="0.8"/>
<path d="M55.8853 144.481C55.8853 144.481 60.9953 140.578 80.2273 149.188C100.586 158.321 179.163 202.82 179.163 202.82C179.163 202.82 101.31 156.993 83.2449 143.958C66.1855 131.606 66.99 125.249 66.99 125.249C58.581 132.531 30.0146 116.719 30.0146 116.719C30.0146 116.719 58.0177 133.577 55.8853 144.481Z" fill="black" fill-opacity="0.8"/>
<path d="M41.2402 183.106C41.2402 183.106 45.4244 178.237 66.0244 182.663C87.8314 187.33 173.973 214.529 173.973 214.529C173.973 214.529 88.3144 185.922 67.9156 176.87C48.6433 168.34 48.1201 161.943 48.1201 161.943C41.4412 170.834 10.1791 161.299 10.1791 161.299C10.1791 161.299 41.0793 171.961 41.2805 183.066L41.2402 183.106Z" fill="black" fill-opacity="0.8"/>
<path d="M34.9234 223.904C34.9234 223.904 38.0214 218.271 59.064 218.311C81.3538 218.351 171.278 227.042 171.278 227.042C171.278 227.042 81.5146 216.863 59.7076 212.276C39.1076 207.931 37.257 201.775 37.257 201.775C32.5496 211.833 0 209.017 0 209.017C0 209.017 32.4289 213.041 34.9234 223.864V223.904Z" fill="black" fill-opacity="0.8"/>
<path d="M37.257 265.145C37.257 265.145 39.1076 258.989 59.7076 254.644C81.5146 250.057 171.278 239.878 171.278 239.878C171.278 239.878 81.3538 248.568 59.064 248.609C37.9812 248.649 34.9234 243.016 34.9234 243.016C32.4289 253.839 0 257.862 0 257.862C0 257.862 32.5496 255.046 37.257 265.105V265.145Z" fill="black" fill-opacity="0.8"/>
<path d="M67.8753 290.049C88.2742 281.037 173.933 252.39 173.933 252.39C173.933 252.39 87.7912 279.588 65.9842 284.255C45.3842 288.681 41.1999 283.813 41.1999 283.813C40.9988 294.918 10.0989 305.58 10.0989 305.58C10.0989 305.58 41.3609 296.044 48.0398 304.936C48.0398 304.936 48.5628 298.539 67.8351 290.009L67.8753 290.049Z" fill="black" fill-opacity="0.8"/>
<path d="M66.99 341.71C66.99 341.71 66.1855 335.353 83.2449 323.001C101.31 309.925 179.163 264.138 179.163 264.138C179.163 264.138 100.586 308.637 80.2273 317.771C60.9953 326.381 55.8853 322.478 55.8853 322.478C58.0177 333.381 30.0146 350.24 30.0146 350.24C30.0146 350.24 58.6213 334.428 66.99 341.71Z" fill="black" fill-opacity="0.8"/>
<path d="M186.687 274.479C186.687 274.479 119.053 334.348 101.069 347.505C84.0495 359.937 78.2559 357.161 78.2559 357.161C82.6012 367.381 58.7018 389.711 58.7018 389.711C58.7018 389.711 83.3654 368.306 93.1021 373.697C93.1021 373.697 90.9698 367.622 105.092 352.011C120.059 335.475 186.687 274.479 186.687 274.479Z" fill="black" fill-opacity="0.8"/>
<path d="M196.223 283.049C196.223 283.049 142.51 355.672 127.623 372.289C113.541 387.98 107.305 386.492 107.305 386.492C113.702 395.585 94.9529 422.381 94.9529 422.381C94.9529 422.381 114.627 396.309 125.29 399.568C125.29 399.568 121.95 394.096 132.532 375.87C143.717 356.597 196.223 283.049 196.223 283.049Z" fill="black" fill-opacity="0.8"/>
<path d="M207.287 289.446C207.287 289.446 169.869 371.645 158.765 390.998C148.263 409.264 141.866 409.103 141.866 409.103C149.994 416.667 137.239 446.763 137.239 446.763C137.239 446.763 151.08 417.15 162.144 418.116C162.144 418.116 157.718 413.449 164.277 393.412C171.197 372.209 207.287 289.406 207.287 289.406V289.446Z" fill="black" fill-opacity="0.8"/>
<path d="M219.478 293.43C219.478 293.43 199.965 381.623 193.125 402.867C186.647 422.904 180.33 424.111 180.33 424.111C189.866 429.824 183.67 461.931 183.67 461.931C183.67 461.931 191.033 430.106 202.097 428.738C202.097 428.738 196.826 425.076 199.079 404.155C201.453 381.985 219.519 293.47 219.519 293.47L219.478 293.43Z" fill="black" fill-opacity="0.8"/>
<path d="M232.233 467C232.233 467 232.836 434.33 243.337 430.709C243.337 430.709 237.423 428.214 235.25 407.292C232.957 385.123 232.233 294.797 232.233 294.797C232.233 294.797 231.468 385.123 229.215 407.292C227.042 428.254 221.128 430.709 221.128 430.709C231.629 434.33 232.233 467 232.233 467Z" fill="black" fill-opacity="0.8"/>
<path d="M265.386 404.113C267.639 425.075 262.368 428.697 262.368 428.697C273.392 430.064 280.795 461.89 280.795 461.89C280.795 461.89 274.599 429.823 284.135 424.07C284.135 424.07 277.818 422.863 271.34 402.826C264.501 381.622 244.987 293.388 244.987 293.388C244.987 293.388 263.052 381.904 265.426 404.073L265.386 404.113Z" fill="black" fill-opacity="0.8"/>
<path d="M327.226 446.803C327.226 446.803 314.472 416.708 322.599 409.144C322.599 409.144 316.161 409.305 305.7 391.038C294.596 371.686 257.178 289.487 257.178 289.487C257.178 289.487 293.228 372.289 300.188 393.493C306.747 413.529 302.321 418.196 302.321 418.196C313.385 417.231 327.226 446.843 327.226 446.843V446.803Z" fill="black" fill-opacity="0.8"/>
<path d="M369.472 422.381C369.472 422.381 350.763 395.585 357.12 386.492C357.12 386.492 350.884 387.98 336.802 372.289C321.915 355.672 268.202 283.049 268.202 283.049C268.202 283.049 320.708 356.557 331.893 375.829C342.475 394.056 339.135 399.527 339.135 399.527C349.757 396.269 369.472 422.34 369.472 422.34V422.381Z" fill="black" fill-opacity="0.8"/>
<path d="M405.763 389.75C405.763 389.75 381.864 367.46 386.209 357.2C386.209 357.2 380.416 359.936 363.397 347.544C345.372 334.387 277.778 274.519 277.778 274.519C277.778 274.519 344.406 335.514 359.373 352.05C373.495 367.661 371.363 373.737 371.363 373.737C381.1 368.345 405.763 389.75 405.763 389.75Z" fill="black" fill-opacity="0.8"/>
<path d="M408.58 322.478C408.58 322.478 403.47 326.381 384.238 317.771C363.879 308.637 285.302 264.138 285.302 264.138C285.302 264.138 363.155 309.965 381.22 323.001C398.28 335.353 397.475 341.71 397.475 341.71C405.884 334.428 434.45 350.24 434.45 350.24C434.45 350.24 406.447 333.381 408.58 322.478Z" fill="black" fill-opacity="0.8"/>
<path d="M423.225 283.854C423.225 283.854 419.041 288.723 398.441 284.297C376.634 279.63 290.492 252.431 290.492 252.431C290.492 252.431 376.151 281.038 396.55 290.09C415.822 298.62 416.345 305.017 416.345 305.017C423.024 296.126 454.286 305.661 454.286 305.661C454.286 305.661 423.386 294.999 423.185 283.894L423.225 283.854Z" fill="black" fill-opacity="0.8"/>
<path d="M429.542 243.055C429.542 243.055 426.444 248.688 405.401 248.648C383.111 248.608 293.188 239.917 293.188 239.917C293.188 239.917 382.95 250.096 404.757 254.683C425.357 259.028 427.208 265.184 427.208 265.184C431.916 255.126 464.465 257.942 464.465 257.942C464.465 257.942 432.036 253.919 429.542 243.095V243.055Z" fill="black" fill-opacity="0.8"/>
<path d="M427.208 201.816C427.208 201.816 425.357 207.972 404.757 212.317C382.95 216.904 293.188 227.083 293.188 227.083C293.188 227.083 383.111 218.393 405.401 218.352C426.484 218.312 429.542 223.945 429.542 223.945C432.036 213.122 464.465 209.099 464.465 209.099C464.465 209.099 431.916 211.915 427.208 201.856V201.816Z" fill="black" fill-opacity="0.8"/>
<path d="M416.345 161.983C416.345 161.983 415.822 168.38 396.55 176.91C376.151 185.922 290.492 214.569 290.492 214.569C290.492 214.569 376.634 187.371 398.441 182.704C419.041 178.278 423.225 183.146 423.225 183.146C423.426 172.042 454.326 161.379 454.326 161.379C454.326 161.379 423.064 170.915 416.385 162.023L416.345 161.983Z" fill="black" fill-opacity="0.8"/>
<path d="M397.475 125.249C397.475 125.249 398.28 131.606 381.22 143.958C363.155 157.034 285.302 202.82 285.302 202.82C285.302 202.82 363.879 158.321 384.238 149.188C403.47 140.578 408.58 144.481 408.58 144.481C406.447 133.577 434.45 116.719 434.45 116.719C434.45 116.719 405.844 132.531 397.475 125.249Z" fill="black" fill-opacity="0.8"/>
<path d="M277.778 192.482C277.778 192.482 345.412 132.613 363.397 119.457C380.416 107.024 386.209 109.8 386.209 109.8C381.864 99.5808 405.763 77.2507 405.763 77.2507C405.763 77.2507 381.1 98.6554 371.363 93.264C371.363 93.264 373.495 99.3394 359.373 114.95C344.406 131.487 277.778 192.482 277.778 192.482Z" fill="black" fill-opacity="0.8"/>
<path d="M268.242 183.912C268.242 183.912 321.955 111.288 336.842 94.6717C350.924 78.9803 357.16 80.469 357.16 80.469C350.763 71.376 369.512 44.58 369.512 44.58C369.512 44.58 349.838 70.6518 339.175 67.3928C339.175 67.3928 342.515 72.8647 331.933 91.0909C320.748 110.363 268.242 183.912 268.242 183.912Z" fill="black" fill-opacity="0.8"/>
<path d="M257.138 177.514C257.138 177.514 294.556 95.3153 305.66 75.9626C316.161 57.6962 322.559 57.8571 322.559 57.8571C314.431 50.2528 327.186 20.1978 327.186 20.1978C327.186 20.1978 313.345 49.8102 302.281 48.8446C302.281 48.8446 306.706 53.5118 300.148 73.5485C293.228 94.752 257.138 177.554 257.138 177.554V177.514Z" fill="black" fill-opacity="0.8"/>
<path d="M244.987 173.531C244.987 173.531 264.501 85.3371 271.34 64.0933C277.818 44.0566 284.135 42.8496 284.135 42.8496C274.599 37.1363 280.795 5.0293 280.795 5.0293C280.795 5.0293 273.432 36.8547 262.368 38.2226C262.368 38.2226 267.639 41.8839 265.386 62.846C263.012 85.0152 244.947 173.531 244.947 173.531H244.987Z" fill="black" fill-opacity="0.8"/>
</svg>
