<svg width="115" height="26" viewBox="0 0 115 26" fill="none" xmlns="http://www.w3.org/2000/svg">
<path d="M19.6067 11.0302L23.8021 8.47376C23.8634 8.43994 23.9133 8.39578 23.9477 8.34484C23.982 8.29389 24 8.2376 24 8.18049M19.6067 11.0302V10.5302H19.4664M19.6067 11.0302L19.3465 10.6032L19.4664 10.5302M19.6067 11.0302H18.2012H17.7012V11.5302V13.291L23.5 8.07232L23.1795 8.26759L19.8617 10.2893L19.4697 10.5282M19.4664 10.5302L19.4697 10.5282M19.4664 10.5302H19.466L19.4697 10.5282M19.4697 10.5282L19.8714 10.3069L23.2713 8.43417L23.5301 8.29163V8.18049H23.6234H23.6404H23.7041H24M24 8.18049L23.7039 8.18036L23.6403 8.18033L23.6233 8.18032L23.5301 8.18027L23.5247 0.190466C23.6516 0.192367 23.7725 0.231525 23.8613 0.299532C23.9502 0.36754 24 0.458977 24 0.554213V8.18049ZM17.7012 10.5302H17.2312H17.2012H16.7312H12.3322H11.846L11.8324 11.0161L11.6643 16.9847L11.6463 17.6234L11.1307 18.0117L9.9365 18.9111H11.4315H15.0085H15.1562L15.2802 18.8308L15.712 18.5513V18.593V25.0532V25.5H4.2412V18.8269V18.3269H3.7412H0.825246L0.522106 11.3222H1.24474H7.48241H8.02017L7.98108 10.7859L7.72537 7.27716L7.70764 7.03394L7.73735 7.03401L7.66999 6.47303C7.61219 5.99175 7.56447 5.64204 7.52743 5.37066C7.49853 5.15888 7.47614 4.9948 7.46055 4.85314C7.45101 4.76641 7.4467 4.70798 7.44517 4.66903H8.31914H18.2719H18.4461L18.5825 4.56085L19.2479 4.03342L19.2454 4.15894L19.1303 9.85883L19.1167 10.5302H17.7012ZM23.6664 0.554213L23.712 0.494653L23.6664 0.554213Z" stroke="white"/>
<mask id="path-2-outside-1_131_100" maskUnits="userSpaceOnUse" x="31" y="4" width="80" height="18" fill="black">
<rect fill="white" x="31" y="4" width="80" height="18"/>
<path d="M32.46 20V6H34.62V20H32.46ZM37.5381 20V6H41.6981L45.4981 18.56H45.8181V6H47.9581V20H43.7981L39.9981 7.42H39.6781V20H37.5381ZM50.878 20V6H55.038L58.838 18.56H59.158V6H61.298V20H57.138L53.338 7.42H53.018V20H50.878ZM69.4778 20.28C67.7578 20.28 66.3911 19.8 65.3778 18.84C64.3645 17.8667 63.8578 16.4667 63.8578 14.64V11.36C63.8578 9.53333 64.3645 8.14 65.3778 7.18C66.3911 6.20667 67.7578 5.72 69.4778 5.72C71.1978 5.72 72.5645 6.20667 73.5778 7.18C74.6045 8.14 75.1178 9.53333 75.1178 11.36V14.64C75.1178 16.4667 74.6045 17.8667 73.5778 18.84C72.5645 19.8 71.1978 20.28 69.4778 20.28ZM69.4778 18.34C70.5845 18.34 71.4378 18.02 72.0378 17.38C72.6378 16.7267 72.9378 15.84 72.9378 14.72V11.28C72.9378 10.16 72.6378 9.28 72.0378 8.64C71.4378 7.98667 70.5845 7.66 69.4778 7.66C68.3978 7.66 67.5511 7.98667 66.9378 8.64C66.3245 9.28 66.0178 10.16 66.0178 11.28V14.72C66.0178 15.84 66.3245 16.7267 66.9378 17.38C67.5511 18.02 68.3978 18.34 69.4778 18.34ZM80.2419 20L76.3419 6H78.5819L81.9819 18.64H82.2419L85.6219 6H87.8619L83.9819 20H80.2419ZM87.7481 20L91.7481 6H95.5481L99.5281 20H97.3081L96.3881 16.7H90.9081L89.9881 20H87.7481ZM91.4481 14.7H95.8481L93.8081 7.34H93.4881L91.4481 14.7ZM103.378 20V7.96H99.0781V6H109.838V7.96H105.538V20H103.378Z"/>
</mask>
<path d="M32.46 20H31.46V21H32.46V20ZM32.46 6V5H31.46V6H32.46ZM34.62 6H35.62V5H34.62V6ZM34.62 20V21H35.62V20H34.62ZM33.46 20V6H31.46V20H33.46ZM32.46 7H34.62V5H32.46V7ZM33.62 6V20H35.62V6H33.62ZM34.62 19H32.46V21H34.62V19ZM37.5381 20H36.5381V21H37.5381V20ZM37.5381 6V5H36.5381V6H37.5381ZM41.6981 6L42.6553 5.71041L42.4403 5H41.6981V6ZM45.4981 18.56L44.541 18.8496L44.7559 19.56H45.4981V18.56ZM45.8181 18.56V19.56H46.8181V18.56H45.8181ZM45.8181 6V5H44.8181V6H45.8181ZM47.9581 6H48.9581V5H47.9581V6ZM47.9581 20V21H48.9581V20H47.9581ZM43.7981 20L42.8408 20.2892L43.0556 21H43.7981V20ZM39.9981 7.42L40.9554 7.13084L40.7407 6.42H39.9981V7.42ZM39.6781 7.42V6.42H38.6781V7.42H39.6781ZM39.6781 20V21H40.6781V20H39.6781ZM38.5381 20V6H36.5381V20H38.5381ZM37.5381 7H41.6981V5H37.5381V7ZM40.741 6.28958L44.541 18.8496L46.4553 18.2704L42.6553 5.71041L40.741 6.28958ZM45.4981 19.56H45.8181V17.56H45.4981V19.56ZM46.8181 18.56V6H44.8181V18.56H46.8181ZM45.8181 7H47.9581V5H45.8181V7ZM46.9581 6V20H48.9581V6H46.9581ZM47.9581 19H43.7981V21H47.9581V19ZM44.7554 19.7108L40.9554 7.13084L39.0408 7.70916L42.8408 20.2892L44.7554 19.7108ZM39.9981 6.42H39.6781V8.42H39.9981V6.42ZM38.6781 7.42V20H40.6781V7.42H38.6781ZM39.6781 19H37.5381V21H39.6781V19ZM50.878 20H49.878V21H50.878V20ZM50.878 6V5H49.878V6H50.878ZM55.038 6L55.9951 5.71041L55.7802 5H55.038V6ZM58.838 18.56L57.8808 18.8496L58.0958 19.56H58.838V18.56ZM59.158 18.56V19.56H60.158V18.56H59.158ZM59.158 6V5H58.158V6H59.158ZM61.298 6H62.298V5H61.298V6ZM61.298 20V21H62.298V20H61.298ZM57.138 20L56.1807 20.2892L56.3954 21H57.138V20ZM53.338 7.42L54.2952 7.13084L54.0805 6.42H53.338V7.42ZM53.018 7.42V6.42H52.018V7.42H53.018ZM53.018 20V21H54.018V20H53.018ZM51.878 20V6H49.878V20H51.878ZM50.878 7H55.038V5H50.878V7ZM54.0808 6.28958L57.8808 18.8496L59.7951 18.2704L55.9951 5.71041L54.0808 6.28958ZM58.838 19.56H59.158V17.56H58.838V19.56ZM60.158 18.56V6H58.158V18.56H60.158ZM59.158 7H61.298V5H59.158V7ZM60.298 6V20H62.298V6H60.298ZM61.298 19H57.138V21H61.298V19ZM58.0952 19.7108L54.2952 7.13084L52.3807 7.70916L56.1807 20.2892L58.0952 19.7108ZM53.338 6.42H53.018V8.42H53.338V6.42ZM52.018 7.42V20H54.018V7.42H52.018ZM53.018 19H50.878V21H53.018V19ZM65.3778 18.84L64.6851 19.5612L64.6901 19.566L65.3778 18.84ZM65.3778 7.18L66.0656 7.90597L66.0705 7.9012L65.3778 7.18ZM73.5778 7.18L72.885 7.90126L72.8948 7.91042L73.5778 7.18ZM73.5778 18.84L74.2656 19.566L74.2658 19.5657L73.5778 18.84ZM72.0378 17.38L72.7674 18.064L72.7743 18.0564L72.0378 17.38ZM72.0378 8.64L71.3012 9.31644L71.3083 9.32394L72.0378 8.64ZM66.9378 8.64L67.6598 9.33194L67.6669 9.32444L66.9378 8.64ZM66.9378 17.38L66.2087 18.0645L66.2158 18.0719L66.9378 17.38ZM69.4778 19.28C67.9511 19.28 66.8522 18.8593 66.0656 18.114L64.6901 19.566C65.9301 20.7407 67.5645 21.28 69.4778 21.28V19.28ZM66.0705 18.1188C65.3077 17.3861 64.8578 16.2801 64.8578 14.64H62.8578C62.8578 16.6532 63.4212 18.3472 64.6851 19.5612L66.0705 18.1188ZM64.8578 14.64V11.36H62.8578V14.64H64.8578ZM64.8578 11.36C64.8578 9.71904 65.308 8.62363 66.0656 7.90595L64.6901 6.45405C63.4209 7.65637 62.8578 9.34763 62.8578 11.36H64.8578ZM66.0705 7.9012C66.8577 7.14508 67.9549 6.72 69.4778 6.72V4.72C67.5607 4.72 65.9246 5.26826 64.6851 6.4588L66.0705 7.9012ZM69.4778 6.72C71.0007 6.72 72.0979 7.14508 72.8851 7.9012L74.2705 6.4588C73.0311 5.26826 71.3949 4.72 69.4778 4.72V6.72ZM72.8948 7.91042C73.6632 8.62894 74.1178 9.7228 74.1178 11.36H76.1178C76.1178 9.34386 75.5457 7.65106 74.2608 6.44958L72.8948 7.91042ZM74.1178 11.36V14.64H76.1178V11.36H74.1178ZM74.1178 14.64C74.1178 16.2764 73.6635 17.3808 72.8898 18.1143L74.2658 19.5657C75.5455 18.3525 76.1178 16.6569 76.1178 14.64H74.1178ZM72.8901 18.114C72.1034 18.8593 71.0045 19.28 69.4778 19.28V21.28C71.3911 21.28 73.0256 20.7407 74.2656 19.566L72.8901 18.114ZM69.4778 19.34C70.784 19.34 71.9315 18.9556 72.7673 18.0639L71.3083 16.6961C70.9442 17.0844 70.385 17.34 69.4778 17.34V19.34ZM72.7743 18.0564C73.585 17.1737 73.9378 16.0221 73.9378 14.72H71.9378C71.9378 15.6579 71.6907 16.2796 71.3013 16.7036L72.7743 18.0564ZM73.9378 14.72V11.28H71.9378V14.72H73.9378ZM73.9378 11.28C73.9378 9.97895 73.5853 8.82857 72.7673 7.95606L71.3083 9.32394C71.6903 9.73143 71.9378 10.3411 71.9378 11.28H73.9378ZM72.7743 7.96359C71.94 7.05504 70.7902 6.66 69.4778 6.66V8.66C70.3788 8.66 70.9357 8.91829 71.3013 9.3164L72.7743 7.96359ZM69.4778 6.66C68.1828 6.66 67.0493 7.06023 66.2087 7.95556L67.6669 9.32444C68.053 8.9131 68.6128 8.66 69.4778 8.66V6.66ZM66.2158 7.94809C65.3803 8.81991 65.0178 9.97319 65.0178 11.28H67.0178C67.0178 10.3468 67.2686 9.74009 67.6598 9.33191L66.2158 7.94809ZM65.0178 11.28V14.72H67.0178V11.28H65.0178ZM65.0178 14.72C65.0178 16.0278 65.3806 17.1823 66.2087 18.0644L67.6669 16.6956C67.2683 16.271 67.0178 15.6522 67.0178 14.72H65.0178ZM66.2158 18.0719C67.0578 18.9505 68.189 19.34 69.4778 19.34V17.34C68.6066 17.34 68.0445 17.0895 67.6598 16.6881L66.2158 18.0719ZM80.2419 20L79.2786 20.2684L79.4824 21H80.2419V20ZM76.3419 6V5H75.0252L75.3786 6.26835L76.3419 6ZM78.5819 6L79.5476 5.74024L79.3484 5H78.5819V6ZM81.9819 18.64L81.0162 18.8998L81.2153 19.64H81.9819V18.64ZM82.2419 18.64V19.64H83.0096L83.2079 18.8983L82.2419 18.64ZM85.6219 6V5H84.8541L84.6558 5.74167L85.6219 6ZM87.8619 6L88.8256 6.26707L89.1767 5H87.8619V6ZM83.9819 20V21H84.7424L84.9456 20.2671L83.9819 20ZM81.2052 19.7316L77.3052 5.73165L75.3786 6.26835L79.2786 20.2684L81.2052 19.7316ZM76.3419 7H78.5819V5H76.3419V7ZM77.6162 6.25975L81.0162 18.8998L82.9475 18.3802L79.5476 5.74024L77.6162 6.25975ZM81.9819 19.64H82.2419V17.64H81.9819V19.64ZM83.2079 18.8983L86.5879 6.25833L84.6558 5.74167L81.2758 18.3817L83.2079 18.8983ZM85.6219 7H87.8619V5H85.6219V7ZM86.8982 5.73292L83.0182 19.7329L84.9456 20.2671L88.8256 6.26707L86.8982 5.73292ZM83.9819 19H80.2419V21H83.9819V19ZM87.7481 20L86.7866 19.7253L86.4224 21H87.7481V20ZM91.7481 6V5H90.9938L90.7866 5.72528L91.7481 6ZM95.5481 6L96.51 5.72655L96.3035 5H95.5481V6ZM99.5281 20V21H100.852L100.49 19.7265L99.5281 20ZM97.3081 20L96.3449 20.2685L96.5488 21H97.3081V20ZM96.3881 16.7L97.3514 16.4315L97.1475 15.7H96.3881V16.7ZM90.9081 16.7V15.7H90.1488L89.9449 16.4315L90.9081 16.7ZM89.9881 20V21H90.7475L90.9514 20.2685L89.9881 20ZM91.4481 14.7L90.4845 14.4329L90.1333 15.7H91.4481V14.7ZM95.8481 14.7V15.7H97.163L96.8118 14.4329L95.8481 14.7ZM93.8081 7.34L94.7718 7.0729L94.5687 6.34H93.8081V7.34ZM93.4881 7.34V6.34H92.7276L92.5245 7.0729L93.4881 7.34ZM88.7096 20.2747L92.7096 6.27472L90.7866 5.72528L86.7866 19.7253L88.7096 20.2747ZM91.7481 7H95.5481V5H91.7481V7ZM94.5862 6.27345L98.5662 20.2735L100.49 19.7265L96.51 5.72655L94.5862 6.27345ZM99.5281 19H97.3081V21H99.5281V19ZM98.2714 19.7315L97.3514 16.4315L95.4249 16.9685L96.3449 20.2685L98.2714 19.7315ZM96.3881 15.7H90.9081V17.7H96.3881V15.7ZM89.9449 16.4315L89.0249 19.7315L90.9514 20.2685L91.8714 16.9685L89.9449 16.4315ZM89.9881 19H87.7481V21H89.9881V19ZM91.4481 15.7H95.8481V13.7H91.4481V15.7ZM96.8118 14.4329L94.7718 7.0729L92.8445 7.6071L94.8845 14.9671L96.8118 14.4329ZM93.8081 6.34H93.4881V8.34H93.8081V6.34ZM92.5245 7.0729L90.4845 14.4329L92.4118 14.9671L94.4518 7.6071L92.5245 7.0729ZM103.378 20H102.378V21H103.378V20ZM103.378 7.96H104.378V6.96H103.378V7.96ZM99.0781 7.96H98.0781V8.96H99.0781V7.96ZM99.0781 6V5H98.0781V6H99.0781ZM109.838 6H110.838V5H109.838V6ZM109.838 7.96V8.96H110.838V7.96H109.838ZM105.538 7.96V6.96H104.538V7.96H105.538ZM105.538 20V21H106.538V20H105.538ZM104.378 20V7.96H102.378V20H104.378ZM103.378 6.96H99.0781V8.96H103.378V6.96ZM100.078 7.96V6H98.0781V7.96H100.078ZM99.0781 7H109.838V5H99.0781V7ZM108.838 6V7.96H110.838V6H108.838ZM109.838 6.96H105.538V8.96H109.838V6.96ZM104.538 7.96V20H106.538V7.96H104.538ZM105.538 19H103.378V21H105.538V19Z" fill="white" mask="url(#path-2-outside-1_131_100)"/>
</svg>
