<svg width="496" height="38" viewBox="0 0 496 38" fill="none" xmlns="http://www.w3.org/2000/svg">
<path d="M20.6513 16.2271H20.1513V16.7271V19.2674C20.15 19.269 20.1485 19.2707 20.1469 19.2725C20.1184 19.3052 20.0777 19.3455 20.0197 19.3976V19.1759V16.7271V16.2271H19.5197H14.3875H13.9016L13.8877 16.7129L13.6917 23.5997L13.6697 24.3722L13.038 24.8426L11.8285 25.7436H13.3367H17.5099H17.6563L17.7795 25.6647L18.414 25.2584V25.4535V32.9075V33.5H4.86474V25.7234V25.2234H4.36474H0.882752L0.522357 16.9872H1.4522H8.72947H9.26767L9.22812 16.4505L8.92978 12.4019L8.90304 12.0389L8.93369 12.039L8.8655 11.4774C8.7985 10.9256 8.74271 10.521 8.69936 10.2067C8.66547 9.96101 8.63919 9.77041 8.62108 9.60759C8.60594 9.47151 8.60159 9.39209 8.60191 9.34586L12.4641 4.52284C12.4668 4.52112 12.4719 4.51819 12.4798 4.51492L12.2897 4.05398L12.4798 4.51492C12.4892 4.51103 12.5007 4.5075 12.5137 4.50485L12.4921 4.53186L9.31541 8.49783L8.66455 9.31042H9.70566H21.3173H21.4899L21.6258 9.2039L25.0598 6.51157L22.7198 8.4232L22.541 8.56931L22.5362 8.80021L22.402 15.377L22.3846 16.2271H20.6513ZM20.1513 19.3357C20.1513 19.3357 20.1513 19.3357 20.1513 19.3357V19.3357ZM23.0494 22.2899L23.181 22.2056V31.2545L23.0494 31.3219V31.1148V23.1253V22.2899ZM27.3684 5.67975V4.71868L27.4381 4.71971C27.4381 4.71971 27.4381 4.71971 27.4381 4.71971C27.4634 4.72009 27.4841 4.72386 27.5 4.72843V13.3558L27.3684 13.4351V13.2264V5.67975ZM25.8433 14.3542L22.7355 16.2271H22.4053L23.1411 15.8263L25.8433 14.3542Z" stroke="black"/>
<mask id="path-2-outside-1_112_791" maskUnits="userSpaceOnUse" x="43" y="6" width="119" height="25" fill="black">
<rect fill="white" x="43" y="6" width="119" height="25"/>
<path d="M44.688 29V8H47.928V29H44.688ZM52.3052 29V8H58.5452L64.2452 26.84H64.7252V8H67.9352V29H61.6952L55.9952 10.13H55.5152V29H52.3052ZM72.315 29V8H78.555L84.255 26.84H84.735V8H87.945V29H81.705L76.005 10.13H75.525V29H72.315ZM100.215 29.42C97.6348 29.42 95.5848 28.7 94.0648 27.26C92.5448 25.8 91.7848 23.7 91.7848 20.96V16.04C91.7848 13.3 92.5448 11.21 94.0648 9.77C95.5848 8.31 97.6348 7.58 100.215 7.58C102.795 7.58 104.845 8.31 106.365 9.77C107.905 11.21 108.675 13.3 108.675 16.04V20.96C108.675 23.7 107.905 25.8 106.365 27.26C104.845 28.7 102.795 29.42 100.215 29.42ZM100.215 26.51C101.875 26.51 103.155 26.03 104.055 25.07C104.955 24.09 105.405 22.76 105.405 21.08V15.92C105.405 14.24 104.955 12.92 104.055 11.96C103.155 10.98 101.875 10.49 100.215 10.49C98.5948 10.49 97.3248 10.98 96.4048 11.96C95.4848 12.92 95.0248 14.24 95.0248 15.92V21.08C95.0248 22.76 95.4848 24.09 96.4048 25.07C97.3248 26.03 98.5948 26.51 100.215 26.51ZM116.361 29L110.511 8H113.871L118.971 26.96H119.361L124.431 8H127.791L121.971 29H116.361ZM127.62 29L133.62 8H139.32L145.29 29H141.96L140.58 24.05H132.36L130.98 29H127.62ZM133.17 21.05H139.77L136.71 10.01H136.23L133.17 21.05ZM151.065 29V10.94H144.615V8H160.755V10.94H154.305V29H151.065Z"/>
</mask>
<path d="M44.688 29H43.688V30H44.688V29ZM44.688 8V7H43.688V8H44.688ZM47.928 8H48.928V7H47.928V8ZM47.928 29V30H48.928V29H47.928ZM45.688 29V8H43.688V29H45.688ZM44.688 9H47.928V7H44.688V9ZM46.928 8V29H48.928V8H46.928ZM47.928 28H44.688V30H47.928V28ZM52.3052 29H51.3052V30H52.3052V29ZM52.3052 8V7H51.3052V8H52.3052ZM58.5452 8L59.5024 7.71041L59.2875 7H58.5452V8ZM64.2452 26.84L63.2881 27.1296L63.503 27.84H64.2452V26.84ZM64.7252 26.84V27.84H65.7252V26.84H64.7252ZM64.7252 8V7H63.7252V8H64.7252ZM67.9352 8H68.9352V7H67.9352V8ZM67.9352 29V30H68.9352V29H67.9352ZM61.6952 29L60.738 29.2892L60.9527 30H61.6952V29ZM55.9952 10.13L56.9525 9.84084L56.7378 9.13H55.9952V10.13ZM55.5152 10.13V9.13H54.5152V10.13H55.5152ZM55.5152 29V30H56.5152V29H55.5152ZM53.3052 29V8H51.3052V29H53.3052ZM52.3052 9H58.5452V7H52.3052V9ZM57.5881 8.28958L63.2881 27.1296L65.2024 26.5504L59.5024 7.71041L57.5881 8.28958ZM64.2452 27.84H64.7252V25.84H64.2452V27.84ZM65.7252 26.84V8H63.7252V26.84H65.7252ZM64.7252 9H67.9352V7H64.7252V9ZM66.9352 8V29H68.9352V8H66.9352ZM67.9352 28H61.6952V30H67.9352V28ZM62.6525 28.7108L56.9525 9.84084L55.038 10.4192L60.738 29.2892L62.6525 28.7108ZM55.9952 9.13H55.5152V11.13H55.9952V9.13ZM54.5152 10.13V29H56.5152V10.13H54.5152ZM55.5152 28H52.3052V30H55.5152V28ZM72.315 29H71.315V30H72.315V29ZM72.315 8V7H71.315V8H72.315ZM78.555 8L79.5122 7.71041L79.2972 7H78.555V8ZM84.255 26.84L83.2978 27.1296L83.5128 27.84H84.255V26.84ZM84.735 26.84V27.84H85.735V26.84H84.735ZM84.735 8V7H83.735V8H84.735ZM87.945 8H88.945V7H87.945V8ZM87.945 29V30H88.945V29H87.945ZM81.705 29L80.7477 29.2892L80.9624 30H81.705V29ZM76.005 10.13L76.9623 9.84084L76.7476 9.13H76.005V10.13ZM75.525 10.13V9.13H74.525V10.13H75.525ZM75.525 29V30H76.525V29H75.525ZM73.315 29V8H71.315V29H73.315ZM72.315 9H78.555V7H72.315V9ZM77.5978 8.28958L83.2978 27.1296L85.2122 26.5504L79.5122 7.71041L77.5978 8.28958ZM84.255 27.84H84.735V25.84H84.255V27.84ZM85.735 26.84V8H83.735V26.84H85.735ZM84.735 9H87.945V7H84.735V9ZM86.945 8V29H88.945V8H86.945ZM87.945 28H81.705V30H87.945V28ZM82.6623 28.7108L76.9623 9.84084L75.0477 10.4192L80.7477 29.2892L82.6623 28.7108ZM76.005 9.13H75.525V11.13H76.005V9.13ZM74.525 10.13V29H76.525V10.13H74.525ZM75.525 28H72.315V30H75.525V28ZM94.0648 27.26L93.372 27.9812L93.377 27.986L94.0648 27.26ZM94.0648 9.77L94.7525 10.496L94.7575 10.4912L94.0648 9.77ZM106.365 9.77L105.672 10.4913L105.682 10.5004L106.365 9.77ZM106.365 27.26L107.053 27.986L107.053 27.9857L106.365 27.26ZM104.055 25.07L104.784 25.754L104.791 25.7464L104.055 25.07ZM104.055 11.96L103.318 12.6364L103.325 12.6439L104.055 11.96ZM96.4048 11.96L97.1268 12.6519L97.1338 12.6444L96.4048 11.96ZM96.4048 25.07L95.6757 25.7545L95.6828 25.7619L96.4048 25.07ZM100.215 28.42C97.8281 28.42 96.0459 27.7593 94.7525 26.534L93.377 27.986C95.1237 29.6407 97.4414 30.42 100.215 30.42V28.42ZM94.7575 26.5388C93.488 25.3194 92.7848 23.5135 92.7848 20.96H90.7848C90.7848 23.8865 91.6015 26.2806 93.372 27.9812L94.7575 26.5388ZM92.7848 20.96V16.04H90.7848V20.96H92.7848ZM92.7848 16.04C92.7848 13.4857 93.4883 11.6936 94.7525 10.496L93.377 9.04405C91.6012 10.7264 90.7848 13.1143 90.7848 16.04H92.7848ZM94.7575 10.4912C96.0514 9.24841 97.8318 8.58 100.215 8.58V6.58C97.4377 6.58 95.1182 7.37159 93.372 9.0488L94.7575 10.4912ZM100.215 8.58C102.598 8.58 104.378 9.24841 105.672 10.4912L107.057 9.0488C105.311 7.37159 102.992 6.58 100.215 6.58V8.58ZM105.682 10.5004C106.964 11.6989 107.675 13.4895 107.675 16.04H109.675C109.675 13.1105 108.846 10.7211 107.048 9.03957L105.682 10.5004ZM107.675 16.04V20.96H109.675V16.04H107.675ZM107.675 20.96C107.675 23.5097 106.964 25.3141 105.677 26.5343L107.053 27.9857C108.846 26.2859 109.675 23.8903 109.675 20.96H107.675ZM105.677 26.534C104.384 27.7593 102.601 28.42 100.215 28.42V30.42C102.988 30.42 105.306 29.6407 107.053 27.986L105.677 26.534ZM100.215 27.51C102.074 27.51 103.648 26.9656 104.784 25.7539L103.325 24.3861C102.661 25.0944 101.675 25.51 100.215 25.51V27.51ZM104.791 25.7464C105.902 24.5371 106.405 22.9421 106.405 21.08H104.405C104.405 22.5779 104.008 23.6429 103.318 24.3936L104.791 25.7464ZM106.405 21.08V15.92H104.405V21.08H106.405ZM106.405 15.92C106.405 14.0589 105.902 12.4686 104.784 11.2761L103.325 12.6439C104.007 13.3714 104.405 14.4211 104.405 15.92H106.405ZM104.791 11.2836C103.657 10.0484 102.08 9.49 100.215 9.49V11.49C101.669 11.49 102.653 11.9116 103.318 12.6364L104.791 11.2836ZM100.215 9.49C98.3798 9.49 96.8229 10.0536 95.6757 11.2756L97.1338 12.6444C97.8267 11.9064 98.8097 11.49 100.215 11.49V9.49ZM95.6828 11.2681C94.5406 12.4599 94.0248 14.0532 94.0248 15.92H96.0248C96.0248 14.4268 96.4289 13.3801 97.1268 12.6519L95.6828 11.2681ZM94.0248 15.92V21.08H96.0248V15.92H94.0248ZM94.0248 21.08C94.0248 22.9478 94.5409 24.5457 95.6757 25.7544L97.1338 24.3856C96.4286 23.6343 96.0248 22.5722 96.0248 21.08H94.0248ZM95.6828 25.7619C96.8314 26.9605 98.386 27.51 100.215 27.51V25.51C98.8035 25.51 97.8181 25.0995 97.1268 24.3781L95.6828 25.7619ZM116.361 29L115.398 29.2684L115.601 30H116.361V29ZM110.511 8V7H109.194L109.548 8.26835L110.511 8ZM113.871 8L114.837 7.74024L114.637 7H113.871V8ZM118.971 26.96L118.005 27.2198L118.204 27.96H118.971V26.96ZM119.361 26.96V27.96H120.129L120.327 27.2183L119.361 26.96ZM124.431 8V7H123.663L123.465 7.74167L124.431 8ZM127.791 8L128.755 8.26707L129.106 7H127.791V8ZM121.971 29V30H122.731L122.935 29.2671L121.971 29ZM117.324 28.7316L111.474 7.73165L109.548 8.26835L115.398 29.2684L117.324 28.7316ZM110.511 9H113.871V7H110.511V9ZM112.905 8.25975L118.005 27.2198L119.937 26.7002L114.837 7.74024L112.905 8.25975ZM118.971 27.96H119.361V25.96H118.971V27.96ZM120.327 27.2183L125.397 8.25833L123.465 7.74167L118.395 26.7017L120.327 27.2183ZM124.431 9H127.791V7H124.431V9ZM126.827 7.73292L121.007 28.7329L122.935 29.2671L128.755 8.26707L126.827 7.73292ZM121.971 28H116.361V30H121.971V28ZM127.62 29L126.659 28.7253L126.295 30H127.62V29ZM133.62 8V7H132.866L132.659 7.72528L133.62 8ZM139.32 8L140.282 7.72655L140.076 7H139.32V8ZM145.29 29V30H146.614L146.252 28.7265L145.29 29ZM141.96 29L140.997 29.2685L141.201 30H141.96V29ZM140.58 24.05L141.544 23.7815L141.34 23.05H140.58V24.05ZM132.36 24.05V23.05H131.601L131.397 23.7815L132.36 24.05ZM130.98 29V30H131.74L131.944 29.2685L130.98 29ZM133.17 21.05L132.207 20.7829L131.855 22.05H133.17V21.05ZM139.77 21.05V22.05H141.085L140.734 20.7829L139.77 21.05ZM136.71 10.01L137.674 9.7429L137.471 9.01H136.71V10.01ZM136.23 10.01V9.01H135.47L135.267 9.7429L136.23 10.01ZM128.582 29.2747L134.582 8.27472L132.659 7.72528L126.659 28.7253L128.582 29.2747ZM133.62 9H139.32V7H133.62V9ZM138.358 8.27345L144.328 29.2735L146.252 28.7265L140.282 7.72655L138.358 8.27345ZM145.29 28H141.96V30H145.29V28ZM142.924 28.7315L141.544 23.7815L139.617 24.3185L140.997 29.2685L142.924 28.7315ZM140.58 23.05H132.36V25.05H140.58V23.05ZM131.397 23.7815L130.017 28.7315L131.944 29.2685L133.324 24.3185L131.397 23.7815ZM130.98 28H127.62V30H130.98V28ZM133.17 22.05H139.77V20.05H133.17V22.05ZM140.734 20.7829L137.674 9.7429L135.747 10.2771L138.807 21.3171L140.734 20.7829ZM136.71 9.01H136.23V11.01H136.71V9.01ZM135.267 9.7429L132.207 20.7829L134.134 21.3171L137.194 10.2771L135.267 9.7429ZM151.065 29H150.065V30H151.065V29ZM151.065 10.94H152.065V9.94H151.065V10.94ZM144.615 10.94H143.615V11.94H144.615V10.94ZM144.615 8V7H143.615V8H144.615ZM160.755 8H161.755V7H160.755V8ZM160.755 10.94V11.94H161.755V10.94H160.755ZM154.305 10.94V9.94H153.305V10.94H154.305ZM154.305 29V30H155.305V29H154.305ZM152.065 29V10.94H150.065V29H152.065ZM151.065 9.94H144.615V11.94H151.065V9.94ZM145.615 10.94V8H143.615V10.94H145.615ZM144.615 9H160.755V7H144.615V9ZM159.755 8V10.94H161.755V8H159.755ZM160.755 9.94H154.305V11.94H160.755V9.94ZM153.305 10.94V29H155.305V10.94H153.305ZM154.305 28H151.065V30H154.305V28Z" fill="black" mask="url(#path-2-outside-1_112_791)"/>
</svg>
