<svg width="109" height="6" viewBox="0 0 109 6" fill="none" xmlns="http://www.w3.org/2000/svg">
<path d="M6.74231 1.29221L3.63424 4.62272C3.19157 5.09687 2.60476 5.36065 1.98191 5.36559L1.1116 5.37249L3.98258 2.21536C4.51535 1.63014 5.22664 1.30424 5.98697 1.29821L6.7428 1.29221M7.83473 0.801003L5.98314 0.815692C5.11034 0.822617 4.27651 1.20412 3.66495 1.87707L0.0396658 5.863L1.98622 5.84756C2.72206 5.84172 3.42593 5.52508 3.9484 4.96536L7.83473 0.801003ZM11.7907 1.25216L8.6826 4.58267C8.23993 5.05682 7.65312 5.3206 7.03026 5.32554L6.15996 5.33244L9.03094 2.17585C9.56371 1.59009 10.2755 1.26418 11.0353 1.25816L11.7912 1.25216M12.8831 0.760952L11.0315 0.775642C10.1587 0.782566 9.32487 1.16407 8.71331 1.83702L5.08802 5.82295L7.03459 5.80751C7.77042 5.80167 8.47429 5.48503 8.99676 4.92531L12.8831 0.760952ZM16.839 1.21211L13.731 4.54262C13.2883 5.01677 12.7015 5.28055 12.0786 5.28549L11.2083 5.29239L14.0793 2.13526C14.6121 1.55003 15.3239 1.22413 16.0837 1.21811L16.8395 1.21211M17.9314 0.720902L16.0799 0.735591C15.2071 0.742515 14.3732 1.12402 13.7617 1.79697L10.1364 5.7829L12.0829 5.76746C12.8188 5.76162 13.5226 5.44498 14.0451 4.88526L17.9314 0.720902ZM21.8874 1.17206L18.7793 4.50257C18.3371 4.97671 17.7503 5.24049 17.127 5.24544L16.2567 5.25234L19.1277 2.09521C19.6604 1.50998 20.3717 1.18409 21.1316 1.17806L21.8874 1.17206ZM22.9793 0.680855L21.1277 0.695544C20.2554 0.702465 19.4211 1.08398 18.8095 1.75692L15.1842 5.74285L17.1308 5.72741C17.8666 5.72157 18.5705 5.40493 19.093 4.84521L22.9793 0.680855ZM26.9352 1.13202L23.8272 4.46252C23.3845 4.93667 22.7977 5.20045 22.1748 5.20539L21.3045 5.2123L24.1755 2.05516C24.7083 1.46994 25.4196 1.14404 26.1794 1.13801L26.9352 1.13202ZM28.0272 0.640808L26.1756 0.655498C25.3033 0.662418 24.4694 1.04392 23.8574 1.71687L20.2321 5.70281L22.1787 5.68736C22.9145 5.68153 23.6184 5.36489 24.1408 4.80517L28.0272 0.640808ZM31.9831 1.09197L28.875 4.42247C28.4329 4.89662 27.8461 5.1604 27.2227 5.16534L26.3524 5.17225L29.2234 2.01512C29.7561 1.42989 30.4674 1.10399 31.2278 1.09796L31.9836 1.09196M33.0755 0.600758L31.2239 0.615447C30.3511 0.622371 29.5173 1.00388 28.9057 1.67682L25.2805 5.66276L27.227 5.64731C27.9629 5.64148 28.6667 5.32483 29.1892 4.76512L33.0755 0.600758ZM37.0315 1.05192L33.9234 4.38242C33.4807 4.85657 32.8939 5.12035 32.2711 5.12529L31.4008 5.1322L34.2717 1.97506C34.8045 1.38984 35.5163 1.06394 36.2761 1.05791L37.032 1.05191M38.1239 0.560707L36.2723 0.575396C35.3995 0.582321 34.5657 0.963827 33.9541 1.63677L30.3288 5.62271L32.2754 5.60726C33.0112 5.60143 33.7151 5.28478 34.2376 4.72507L38.1239 0.560707ZM42.0798 1.01187L38.9717 4.34237C38.5291 4.81652 37.9423 5.0803 37.3194 5.08524L36.4491 5.09215L39.3201 1.93501C39.8529 1.34979 40.5647 1.02389 41.3245 1.01786L42.0803 1.01186M43.1722 0.520656L41.3207 0.535346C40.4479 0.54227 39.614 0.923777 39.0025 1.59672L35.3772 5.58266L37.3237 5.56721C38.0596 5.56137 38.7635 5.24473 39.2859 4.68502L43.1722 0.520656ZM47.1282 0.971817L44.0201 4.30232C43.5779 4.77647 42.9911 5.04025 42.3678 5.04519L41.4975 5.0521L44.3685 1.89496C44.9012 1.30974 45.6125 0.983841 46.3723 0.977813L47.1282 0.971817ZM48.2201 0.48061L46.3685 0.495299C45.4962 0.502219 44.6619 0.88373 44.0503 1.55668L40.425 5.54261L42.3716 5.52717C43.1074 5.52133 43.8113 5.20469 44.3338 4.64497L48.2201 0.48061ZM52.176 0.93177L49.068 4.26227C48.6253 4.73643 48.039 5.0002 47.4156 5.00515L46.5453 5.01205L49.4163 1.85492C49.9491 1.26969 50.6604 0.943795 51.4202 0.937767L52.176 0.93177ZM53.268 0.440563L51.4164 0.455252C50.5436 0.462177 49.7102 0.843679 49.0982 1.51663L45.4729 5.50256L47.4195 5.48712C48.1553 5.48128 48.8592 5.16464 49.3816 4.60492L53.268 0.440563ZM57.2239 0.891723L54.1158 4.22223C53.6737 4.69638 53.0868 4.96015 52.4635 4.9651L51.5932 4.972L54.4642 1.81487C54.9969 1.22964 55.7082 0.903748 56.4686 0.897716L57.2244 0.89172M58.3163 0.400512L56.4647 0.415202C55.5919 0.422126 54.7581 0.803632 54.1465 1.47658L50.5213 5.46251L52.4678 5.44707C53.2036 5.44123 53.9075 5.12459 54.43 4.56487L58.3163 0.400512ZM62.2723 0.851673L59.1642 4.18218C58.7215 4.65633 58.1347 4.92011 57.5119 4.92505L56.6416 4.93195L59.5125 1.77482C60.0453 1.18959 60.7571 0.863693 61.5164 0.857669L62.2723 0.851673ZM63.3642 0.360466L61.5126 0.375155C60.6403 0.382075 59.8065 0.763582 59.1944 1.43653L55.5691 5.42246L57.5157 5.40702C58.2515 5.40118 58.9554 5.08454 59.4779 4.52482L63.3642 0.360466ZM67.3201 0.811626L64.2121 4.14213C63.7694 4.61628 63.1826 4.88006 62.5597 4.885L61.6894 4.89191L64.5604 1.73477C65.0932 1.14955 65.805 0.823646 66.5648 0.817618L67.3206 0.811622M68.4125 0.320415L66.561 0.335104C65.6882 0.342029 64.8543 0.723535 64.2428 1.39648L60.6175 5.38241L62.564 5.36697C63.2999 5.36113 64.0037 5.04449 64.5262 4.48477L68.4125 0.320415ZM72.3685 0.771575L69.2604 4.10208C68.8177 4.57623 68.2314 4.84001 67.6081 4.84495L66.7378 4.85186L69.6087 1.69472C70.1415 1.1095 70.8528 0.7836 71.6126 0.777572L72.3685 0.771575ZM73.4604 0.280368L71.6088 0.295058C70.736 0.301982 69.9022 0.683488 69.2906 1.35643L65.6653 5.34237L67.6119 5.32692C68.3477 5.32109 69.0516 5.00445 69.5741 4.44473L73.4604 0.280368ZM77.4163 0.731529L74.3083 4.06203C73.8656 4.53619 73.2793 4.79996 72.6559 4.8049L71.7856 4.81181L74.6566 1.65468C75.1894 1.06945 75.9007 0.743553 76.6605 0.737525L77.4163 0.731529ZM78.5083 0.240322L76.6567 0.255011C75.7839 0.261935 74.95 0.643442 74.3385 1.31639L70.7132 5.30232L72.6598 5.28688C73.3956 5.28104 74.0995 4.9644 74.6219 4.40468L78.5083 0.240322ZM82.4642 0.691482L79.3561 4.02199C78.914 4.49613 78.3272 4.75991 77.7038 4.76486L76.8335 4.77176L79.7045 1.61463C80.2372 1.0294 80.9485 0.703506 81.7084 0.697478L82.4642 0.691482ZM83.5561 0.200275L81.7045 0.214964C80.8322 0.221884 79.9979 0.603395 79.3863 1.27634L75.7611 5.26227L77.7076 5.24683C78.4435 5.24099 79.1473 4.92435 79.6698 4.36463L83.5561 0.200275ZM87.5121 0.651435L84.404 3.98194C83.9613 4.45609 83.3745 4.71987 82.7517 4.72481L81.8813 4.73172L84.7523 1.57458C85.2851 0.989357 85.9969 0.663456 86.7562 0.657432L87.5121 0.651435ZM88.604 0.160228L86.7524 0.174917C85.8801 0.181838 85.0463 0.563344 84.4342 1.23629L80.8089 5.22223L82.7555 5.20678C83.4908 5.20095 84.1952 4.88431 84.7177 4.32459L88.604 0.160228ZM92.5599 0.611389L89.4518 3.94189C89.0092 4.41605 88.4224 4.67982 87.7995 4.68476L86.9292 4.69167L89.8002 1.53453C90.333 0.94931 91.0448 0.623409 91.8046 0.617381L92.5604 0.611385M93.6523 0.120177L91.8008 0.134867C90.928 0.141791 90.0941 0.523298 89.4826 1.19624L85.8573 5.18218L87.8038 5.16673C88.5397 5.1609 89.2435 4.84425 89.766 4.28454L93.6523 0.120177ZM97.6083 0.571338L94.5002 3.90184C94.0575 4.37599 93.4712 4.63977 92.8479 4.64471L91.9776 4.65162L94.8486 1.49448C95.3813 0.909259 96.0926 0.583362 96.8524 0.577334L97.6083 0.571338ZM98.7002 0.0801307L96.8486 0.09482C95.9758 0.101744 95.142 0.483251 94.5304 1.1562L90.9051 5.14213L92.8517 5.12669C93.5875 5.12085 94.2914 4.80421 94.8139 4.24449L98.7002 0.0801307ZM102.656 0.531291L99.5481 3.86179C99.1054 4.33595 98.5191 4.59972 97.8957 4.60467L97.0254 4.61157L99.8964 1.45444C100.429 0.869213 101.14 0.543316 101.9 0.537288L102.656 0.531291ZM103.748 0.0400839L101.896 0.0547733C101.024 0.0616976 100.19 0.443204 99.5783 1.11615L95.953 5.10208L97.8996 5.08664C98.6354 5.0808 99.3393 4.76416 99.8617 4.20444L103.748 0.0400839ZM107.704 0.491244L104.596 3.82175C104.153 4.2959 103.566 4.55968 102.944 4.56462L102.073 4.57152L104.944 1.41439C105.477 0.829166 106.188 0.503269 106.948 0.497241L107.704 0.491244ZM108.796 3.72304e-05L106.944 0.0147266C106.072 0.0216469 105.238 0.403157 104.626 1.0761L101.001 5.06204L102.947 5.04659C103.683 5.04076 104.387 4.72411 104.91 4.1644L108.796 3.72304e-05Z" fill="#1E1E1E"/>
</svg>
